<svg width="69" height="69" viewBox="0 0 69 69" fill="none" xmlns="http://www.w3.org/2000/svg">
<path d="M23 37.375V12.9375C23 11.7938 23.4544 10.6969 24.2631 9.8881C25.0719 9.07935 26.1688 8.625 27.3125 8.625C28.4562 8.625 29.5531 9.07935 30.3619 9.8881C31.1706 10.6969 31.625 11.7938 31.625 12.9375V34.5M31.625 33.0625V27.3125C31.625 26.1688 32.0794 25.0719 32.8881 24.2631C33.6969 23.4544 34.7938 23 35.9375 23C37.0812 23 38.1781 23.4544 38.9869 24.2631C39.7956 25.0719 40.25 26.1688 40.25 27.3125V34.5M40.25 30.1875C40.25 29.0438 40.7044 27.9469 41.5131 27.1381C42.3219 26.3294 43.4188 25.875 44.5625 25.875C45.7062 25.875 46.8031 26.3294 47.6119 27.1381C48.4206 27.9469 48.875 29.0438 48.875 30.1875V34.5" stroke="#14AE5C" stroke-width="2" stroke-linecap="round" stroke-linejoin="round"/>
<path d="M48.875 33.0625C48.875 31.9188 49.3294 30.8219 50.1381 30.0131C50.9469 29.2044 52.0438 28.75 53.1875 28.75C54.3312 28.75 55.4281 29.2044 56.2369 30.0131C57.0456 30.8219 57.5 31.9188 57.5 33.0625V46C57.5 50.575 55.6826 54.9626 52.4476 58.1976C49.2126 61.4326 44.825 63.25 40.25 63.25H34.5H35.098C32.2412 63.2505 29.429 62.5415 26.914 61.1866C24.3989 59.8317 22.2597 57.8734 20.6885 55.4875L20.125 54.625C19.228 53.2488 16.0789 47.7595 10.6777 38.157C10.127 37.1782 9.97994 36.0231 10.2677 34.9374C10.5555 33.8518 11.2555 32.9213 12.2188 32.3438C13.2452 31.7296 14.4472 31.4753 15.6344 31.6211C16.8217 31.7669 17.9264 32.3045 18.7738 33.1487L23 37.375M14.375 8.625L11.5 5.75M11.5 20.125H8.625M40.25 8.625L43.125 5.75M43.125 17.25H46" stroke="#14AE5C" stroke-width="2" stroke-linecap="round" stroke-linejoin="round"/>
</svg>
